<svg xmlns="http://www.w3.org/2000/svg" xmlns:xlink="http://www.w3.org/1999/xlink" version="1.1" id="图层_1" x="0px" y="0px" viewBox="0 0 226.24 51.17" style="enable-background:new 0 0 226.24 51.17;" xml:space="preserve">
<style type="text/css">
.st0{fill:#000000;}
</style>
<g>
<polygon class="st0" points="90.8,16.41 102.38,48.13 119.05,48.13 99.68,0.53 82.3,0.53 62.92,48.13 79.19,48.13 "/>
<rect x="206.18" y="0.43" class="st0" width="35.96" height="47.6"/>
<path class="st0" d="M44.99,26.76c-1.75-2.01-3.76-3.66-7.47-4.49c2.44-0.78,3.58-1.6,4.83-2.93c1.9-2.01,2.86-4.43,2.86-7.24 c0-3.34-1.34-6.16-4-8.43c-2.66-2.27-6.48-3.41-11.45-3.41H0v10.43h25.9c0,0,4.02,0.19,3.97,3.91c-0.05,4.03-4.08,3.98-4.08,3.98H0 v10.47h24.1c1.74,0,4.51-0.35,5.93,0.7c1.13,0.84,1.59,1.5,1.59,2.91c0,1.52-0.56,2.73-1.68,3.63c-1.13,0.9-2.18,1.11-5.81,1.16H0 v10.41h27.45c1.17,0,3.56-0.23,7.15-0.66c2.69-0.32,4.71-0.84,6.04-1.56c2.16-1.14,3.86-2.7,5.1-4.67c1.24-1.96,1.86-4.2,1.86-6.66 C47.6,31.27,46.73,28.76,44.99,26.76"/>
<polygon class="st0" points="162.14,16.13 173.72,47.85 190.4,47.85 171.03,0.25 153.64,0.25 134.26,47.85 150.53,47.85 "/>
</g>
</svg>